<?xml version="1.0" encoding="utf-8"?>
<!-- Generator: Adobe Illustrator 15.0.0, SVG Export Plug-In . SVG Version: 6.00 Build 0)  -->
<!DOCTYPE svg PUBLIC "-//W3C//DTD SVG 1.1//EN" "http://www.w3.org/Graphics/SVG/1.1/DTD/svg11.dtd">
<svg version="1.1" id="Layer_1" xmlns="http://www.w3.org/2000/svg" xmlns:xlink="http://www.w3.org/1999/xlink" x="0px" y="0px"
	 width="500px" height="52.477px" viewBox="0 0 500 52.477" enable-background="new 0 0 500 52.477" xml:space="preserve">
<g>
	<defs>
		<rect id="SVGID_1_" x="2.136" y="2.082" width="496.186" height="47.653"/>
	</defs>
	<clipPath id="SVGID_2_">
		<use xlink:href="#SVGID_1_"  overflow="visible"/>
	</clipPath>
	<path clip-path="url(#SVGID_2_)" fill="#FFFFFF" d="M2.136,49.066l3.248-5.74c-0.015-1.34,0.002-2.809,0.102-3.907
		c0.237-2.643,3.487-9.071,5.261-11.928c1.417-2.282,3.293-5.294,6-8.642l6.062-6.314c3.966-3.627,8.875-6.616,17.54-8.206
		C52.762,2.051,52.567,2.393,60.29,2.714c3.015,0.167,10.769,0.749,14.476,1.927c3.707,1.179,10.518,3.958,14.615,8.236
		c0.71,0.742,1.343,1.502,1.907,2.273v0.001c1.61,2.211,2.625,4.501,3.13,6.663v0.002c0.333,1.422,0.446,2.791,0.367,4.044
		c-0.066,1.014-0.242,1.88-0.483,2.618v0.005c-0.674,2.07-1.854,3.203-2.562,3.951c-1.317,1.394-2.946,2.338-4.681,2.709h-0.002
		c-0.79,0.169-1.6,0.221-2.413,0.144c-0.292-0.026-0.567-0.079-0.828-0.144h3.128l-3.128-0.005c-3.911-1.078-4.388-6.81-0.625-6.546
		c2.462,0.173,2.313,1.713,2.22,2.088c-0.094,0.373-0.024,0.466-0.024,0.823c-0.004,0.359,0.737,0.387,1.247,0.261
		c1.142-0.281,2.492-1.444,3.238-3.286c0.288-0.712,0.487-1.527,0.546-2.43c0.157-2.439-0.182-2.729-0.356-3.314
		c-0.121-0.41-0.451-0.353-0.662-0.21c-0.212,0.141-0.956,0.413-2.735,1.055c-2.721,0.982-5.891,1.389-9.707,1.082
		c-3.215-0.259-6.449-1.109-8.965-2.847v-0.006c-0.618-0.428-1.19-0.909-1.712-1.451c-0.861-0.896-1.929-3.098-2.007-5.207v-0.004
		c-0.035-0.906,0.114-1.794,0.535-2.556c2.051-3.7,8.542-2.457,7.486,1.209c-0.228,0.793-0.684,1.177-1.156,1.351h-0.014
		c-0.541,0.188-1.104,0.101-1.377,0.024c-0.028-0.009-0.057-0.018-0.084-0.024v-0.006c-0.567-0.258-0.826-1.38-0.646-1.69
		c0.136-0.229-0.323-0.234-0.701-0.133c-0.284,0.077-0.911,0.663-1.116,1.829h-0.096h0.096c-0.04,0.229-0.064,0.481-0.065,0.756
		c-0.008,1.258,1.03,1.99,1.151,2.02c0.117,0.034,0.379,0.1,0.582-0.03c0.198-0.128,2.098-2.031,3.95-2.747v-0.002
		c0.042-0.016,0.084-0.032,0.125-0.047c2.133-0.763,3.017-1.893,8.157-1.201c0.789,0.107,1.635,0.572,2.234,1.248
		c0.489,0.555,0.811,1.255,0.797,2.013c-0.049,2.484-2.53,2.915-2.923,2.905c-0.39-0.009-1.784-0.047-1.717-1.518
		c0.068-1.469,1.004-1.202,1.004-1.202s0.514,0.005,0.626,0.174c0.112,0.167,0.165,0.263,0.272,0.196
		c0.152-0.096,0.347-0.451,0.258-0.636c-0.671-1.361-3.451-0.769-4.596-0.623c-2.439,0.311-6.516,2.567-6.559,2.994
		c-0.072,0.745,6.481,1.854,6.481,1.854c5.49,0.389,9.822-1.026,10.474-1.398c0.653-0.371,0.712-0.524,0.641-0.999
		c-0.045-0.295-0.675-1.825-2.745-3.757c-1.263-1.179-3.06-2.505-5.586-3.792c-5.728-2.916-13.34-4.125-19.065-3.865
		c0.108,0.56,0.501,3.878,1.646,7.657v0.003c0.672,2.219,1.601,4.595,2.886,6.661v0.005c0.013,0.023,0.029,0.048,0.043,0.071
		c1.656,2.646,3.417,4.795,5.185,6.589c2.921,2.969,5.862,4.97,8.368,6.665c0.449,0.304,0.883,0.597,1.303,0.885
		c4.164,2.864,11.306,5.623,13.505,6.137c2.326,0.544,4.951,1.249,4.899,0.625c-0.052-0.626-0.81-2.534-1.799-6.594
		c-0.083-0.339-0.158-0.689-0.228-1.052c-0.39-2.007-0.602-4.358-0.698-6.662c-0.103-2.439-0.074-4.822,0.009-6.667V21.81
		c0.055-1.209,0.134-2.19,0.215-2.814c0.153-1.179,0.494-2.478,0.992-3.845v-0.002c0.616-1.696,1.474-3.495,2.514-5.294
		c1.882-3.247,3.666-4.487,6.275-6.26c2.606-1.774,5.555-1.514,6.912-1.478c1.354,0.036,3.321,0.326,4.799,1.358
		c1.48,1.034,2.33,1.893,3.01,2.964c0.68,1.069,1.129,3.546,0.891,5.368c-0.188,1.438-1.349,2.816-2.968,3.345h-0.188h0.188
		c-0.434,0.141-0.898,0.221-1.386,0.226c-0.512,0.005-0.935-0.079-1.282-0.223h-0.011c-1.208-0.494-1.489-1.664-1.503-2.051
		c-0.021-0.502-0.013-2.093,1.938-2.141c1.948-0.047,1.714,0.748,1.76,0.88c0.049,0.131,0.287,0.048,0.346-0.024
		c0.06-0.07,0.93-0.903-0.156-3.367c-1.084-2.467-3.546-3.131-4.866-3.167c-1.32-0.036-3.047,0.488-3.165,0.609
		c-0.12,0.119-0.157,0.024,0.155,0.474c0.308,0.45,1.712,5.084,2.009,8.463c0.01,0.11,0.021,0.219,0.031,0.322v0.005
		c0.229,2.537,0.413,4.184-0.192,6.659c-0.023,0.097-0.049,0.197-0.075,0.297c-0.405,1.539-1.166,3.179-1.522,3.787
		c-0.196,0.333-0.79,1.547-1.758,2.581c-0.802,0.857-1.858,1.59-3.158,1.595c-1.911,0.008-2.687-0.878-2.991-1.595v-0.005
		c-0.152-0.36-0.187-0.68-0.187-0.826c0-0.438,0.371-2.142,1.886-2.179c1.736-0.045,1.473,1.396,1.247,1.789
		c-0.226,0.392-0.455,0.343-0.372,0.582c0.085,0.238,0.391,0.331,0.685,0.322c0.543-0.017,1.349-0.631,1.691-1.542
		c0.031-0.078,0.253-0.563,0.124-0.784c-0.035-0.063-0.863-0.321-1.29-0.416c-1.456-0.323-2.436-1.984-3.047-3.605
		c-0.587-1.55-0.835-3.059-0.842-3.321c-0.009-0.439-0.03-2.05,0.572-3.345h0.001c0.136-0.291,0.3-0.563,0.507-0.803
		c1.12-1.308,1.72-1.476,2.834-1.471c0.944,0.005,1.678,0.653,1.797,1.537c0.037,0.275-0.002,0.522-0.102,0.737h-0.003
		c-0.221,0.454-0.727,0.727-1.347,0.727c-0.904,0-1.058-0.559-1.058-0.559s-0.05-0.102-0.125-0.168v-0.006
		c-0.066-0.066-0.153-0.108-0.249-0.037c-0.015,0.01-0.031,0.026-0.05,0.043v0.005c-0.248,0.285-0.849,1.519-0.691,3.649
		c0.087,1.176,0.547,2.182,1.122,3.004h0.004c1.152,1.635,2.764,2.518,2.764,2.518s0.204,0,0.355-0.203
		c0.067-0.091,0.306-1.031,0.538-2.308v-0.003c0.28-1.565,0.548-3.64,0.469-5.282c-0.022-0.44-0.067-0.903-0.132-1.377
		c-0.475-3.423-1.957-7.412-2.321-7.595c-0.417-0.208-0.521-0.104-1.042,0.21c-0.522,0.311-1.46,1.456-2.708,3.539
		c-0.492,0.823-1.091,2.184-1.624,3.845c-0.623,1.945-1.154,4.296-1.313,6.664c-0.047,0.726-0.061,1.454-0.032,2.17
		c0.061,1.478,0.191,2.995,0.364,4.494c0.266,2.331,0.632,4.62,0.993,6.661c0.495,2.785,0.983,5.104,1.195,6.428
		c0.149,0.922,0.461,2.195,0.965,2.195c0.392,0,1.322-0.333,1.482-2.83c0.089-1.409,0.764-3.455,1.802-5.789
		c0.919-2.071,2.13-4.371,3.477-6.665h0.003c1.361-2.311,2.86-4.615,4.347-6.665h0.002c1.143-1.575,2.277-2.999,3.333-4.155
		c0.774-0.852,1.536-1.688,2.309-2.509h0.005c4.534-4.783,9.511-8.866,20.181-10.822c12.395-2.271,12.254-1.936,19.941-1.614
		c3.015,0.167,10.771,0.749,14.477,1.927c3.706,1.179,10.517,3.958,14.614,8.236c0.71,0.745,1.354,1.504,1.928,2.273v0.003
		c1.644,2.21,2.729,4.5,3.287,6.661v0.002c0.366,1.422,0.505,2.791,0.425,4.044c-0.064,1.014-0.257,1.88-0.524,2.618v0.005
		c-0.741,2.07-2.049,3.203-2.756,3.951c-1.318,1.394-2.948,2.338-4.683,2.709h-0.001c-0.789,0.169-1.599,0.221-2.412,0.144
		c-0.292-0.026-0.568-0.079-0.831-0.144v-0.005c-3.909-1.078-4.386-6.81-0.622-6.546c2.461,0.173,2.313,1.713,2.22,2.088
		c-0.093,0.373-0.022,0.466-0.024,0.823c-0.005,0.359,0.736,0.387,1.248,0.261c1.141-0.281,2.491-1.444,3.236-3.286
		c0.289-0.712,0.487-1.527,0.544-2.43c0.158-2.439-0.179-2.729-0.354-3.314c-0.122-0.41-0.452-0.353-0.663-0.21
		c-0.212,0.141-0.955,0.413-2.735,1.055c-2.72,0.982-5.891,1.389-9.706,1.082c-3.215-0.259-6.448-1.109-8.964-2.847v-0.006
		c-0.618-0.428-1.192-0.909-1.712-1.451c-0.862-0.896-1.928-3.098-2.008-5.207h0.019v-0.004h-0.019
		c-0.034-0.906,0.113-1.794,0.535-2.556c2.051-3.7,8.542-2.457,7.487,1.209c-0.228,0.793-0.684,1.177-1.157,1.351h-0.012
		c-0.541,0.188-1.104,0.101-1.376,0.024c-0.031-0.009-0.057-0.018-0.086-0.024v-0.006c-0.566-0.258-0.826-1.38-0.644-1.69
		c0.136-0.229-0.324-0.234-0.701-0.133c-0.286,0.077-0.912,0.663-1.117,1.829h-0.054h0.054c-0.039,0.229-0.064,0.481-0.066,0.756
		c-0.007,1.258,1.031,1.99,1.151,2.02c0.118,0.034,0.381,0.1,0.584-0.03c0.198-0.128,2.096-2.031,3.947-2.747v-0.002
		c0.043-0.016,3.144-1.94,8.285-1.248c0.788,0.107,1.635,0.572,2.232,1.248h0.001c0.49,0.555,0.81,1.255,0.796,2.013
		c-0.048,2.484-2.53,2.915-2.922,2.905c-0.389-0.009-1.785-0.047-1.717-1.518c0.067-1.469,1.001-1.202,1.001-1.202
		s0.518,0.005,0.627,0.174c0.114,0.167,0.167,0.263,0.272,0.196c0.152-0.096,0.347-0.451,0.258-0.636
		c-0.671-1.361-3.453-0.769-4.593-0.623c-2.44,0.311-6.519,2.567-6.562,2.994c-0.071,0.745,6.482,1.854,6.482,1.854
		c5.491,0.389,9.822-1.026,10.475-1.398c0.652-0.371,0.711-0.524,0.639-0.999c-0.043-0.295-0.675-1.825-2.745-3.757
		c-1.26-1.179-3.059-2.505-5.586-3.792c-5.727-2.916-13.276-4.27-19.005-4.01c0.11,0.563,0.482,3.955,1.615,7.796
		c0.661,2.233,1.581,4.614,2.856,6.67v0.005c0.015,0.023,0.029,0.048,0.043,0.071c1.656,2.646,3.417,4.795,5.183,6.589h0.001
		c2.924,2.969,5.864,4.97,8.367,6.665c0.452,0.304,0.885,0.597,1.306,0.885c4.164,2.864,11.305,5.623,13.504,6.137
		c2.326,0.544,4.953,1.249,4.9,0.625c-0.053-0.626-0.81-2.534-1.799-6.594c-0.082-0.339-0.159-0.689-0.229-1.052
		c-0.388-2.007-0.601-4.358-0.698-6.662c-0.101-2.439-0.074-4.822,0.009-6.667V21.81c0.055-1.209,0.134-2.19,0.215-2.814
		c0.155-1.179,0.496-2.478,0.992-3.845v-0.002c0.616-1.696,1.475-3.495,2.516-5.294c1.88-3.247,3.666-4.487,6.275-6.26
		c2.606-1.774,5.553-1.514,6.907-1.478c1.358,0.036,3.325,0.326,4.803,1.358c1.48,1.034,2.33,1.893,3.009,2.964
		c0.68,1.069,1.131,3.546,0.892,5.368c-0.188,1.438-1.348,2.816-2.968,3.345h-0.188h0.188c-0.433,0.141-0.899,0.221-1.386,0.226
		c-0.513,0.005-0.936-0.079-1.281-0.223h-0.011c-1.209-0.494-1.488-1.664-1.502-2.051c-0.023-0.502-0.015-2.093,1.936-2.141
		c1.95-0.047,1.714,0.748,1.763,0.88c0.045,0.131,0.285,0.048,0.345-0.024c0.059-0.07,0.929-0.903-0.155-3.367
		c-1.086-2.467-3.549-3.131-4.87-3.167c-1.318-0.036-3.044,0.488-3.165,0.609c-0.121,0.119-0.155,0.024,0.154,0.474
		c0.311,0.45,1.713,5.084,2.013,8.463c0.01,0.11,0.02,0.219,0.029,0.322v0.005c0.231,2.537,0.412,4.184-0.194,6.659l0,0
		c-0.023,0.097-0.047,0.197-0.077,0.297c-0.404,1.539-1.163,3.179-1.519,3.787c-0.197,0.333-0.791,1.547-1.758,2.581
		c-0.802,0.857-1.858,1.59-3.158,1.595c-1.911,0.008-2.686-0.878-2.992-1.595v-0.005c-0.151-0.36-0.187-0.68-0.187-0.826
		c0-0.438,0.373-2.142,1.886-2.179c1.736-0.045,1.475,1.396,1.247,1.789c-0.226,0.392-0.452,0.343-0.37,0.582
		c0.083,0.238,0.391,0.331,0.685,0.322c0.543-0.017,1.35-0.631,1.691-1.542c0.029-0.078,0.251-0.563,0.122-0.784
		c-0.035-0.063-0.861-0.321-1.288-0.416c-1.457-0.323-2.436-1.984-3.049-3.605c-0.587-1.55-0.833-3.059-0.84-3.321
		c-0.011-0.439-0.032-2.05,0.57-3.345h0.002c0.135-0.291,0.301-0.563,0.506-0.803c1.122-1.308,1.722-1.476,2.835-1.471
		c0.945,0.005,1.678,0.653,1.797,1.537c0.038,0.275-0.002,0.522-0.101,0.737h-0.003c-0.223,0.454-0.73,0.727-1.348,0.727
		c-0.903,0-1.056-0.559-1.056-0.559s-0.049-0.102-0.125-0.168v-0.006c-0.065-0.066-0.155-0.108-0.251-0.037
		c-0.012,0.01-0.03,0.026-0.049,0.043v0.005c-0.247,0.285-0.848,1.519-0.692,3.649c0.088,1.176,0.548,2.182,1.124,3.004h0.005
		c1.152,1.635,2.761,2.518,2.761,2.518s0.203,0,0.356-0.203c0.066-0.091,0.306-1.031,0.537-2.308v-0.003
		c0.28-1.565,0.547-3.64,0.469-5.282c-0.021-0.44-0.066-0.903-0.133-1.377c-0.473-3.423-1.953-7.412-2.32-7.595
		c-0.418-0.208-0.521-0.104-1.042,0.21c-0.522,0.311-1.459,1.456-2.708,3.539c-0.493,0.823-1.094,2.184-1.625,3.845
		c-0.624,1.945-1.152,4.296-1.312,6.664c-0.047,0.726-0.061,1.454-0.031,2.17c0.061,1.478,0.191,2.995,0.362,4.494
		c0.266,2.331,0.631,4.62,0.995,6.661c0.495,2.785,0.981,5.104,1.194,6.428c0.149,0.922,0.461,2.195,0.965,2.195
		c0.392,0,1.323-0.333,1.482-2.83c0.083-1.322,0.685-3.205,1.618-5.359l0.189-0.43c0.917-2.009,2.217-4.523,3.472-6.665h0.003
		c1.359-2.311,2.859-4.615,4.347-6.665h0.003c1.145-1.575,2.278-2.999,3.333-4.155c0.773-0.852,1.535-1.688,2.31-2.509h0.005
		c4.531-4.783,9.509-8.866,20.179-10.822c12.375-2.268,12.295-1.934,19.941-1.614c3.016,0.167,10.77,0.749,14.477,1.927
		c3.708,1.179,10.517,3.958,14.614,8.236c0.712,0.745,1.354,1.504,1.93,2.273v0.003c1.644,2.21,2.729,4.5,3.287,6.661h-0.106
		c0.002,0,0.106,0.002,0.106,0.002c0.366,1.422,0.504,2.791,0.425,4.044c-0.067,1.014-0.258,1.88-0.526,2.618v0.005
		c-0.74,2.07-2.048,3.203-2.755,3.951c-1.316,1.394-2.946,2.338-4.682,2.709h-0.003c-0.787,0.169-1.6,0.221-2.411,0.144
		c-0.292-0.026-0.567-0.079-0.829-0.144h3.131l-3.131-0.005c-3.91-1.078-4.388-6.81-0.622-6.546
		c2.462,0.173,2.313,1.713,2.218,2.088c-0.093,0.373-0.023,0.466-0.026,0.823c-0.001,0.359,0.739,0.387,1.25,0.261
		c1.142-0.281,2.493-1.444,3.237-3.286l0,0c0.288-0.712,0.486-1.527,0.547-2.43c0.156-2.439-0.185-2.729-0.358-3.314
		c-0.119-0.41-0.449-0.353-0.661-0.21c-0.21,0.141-0.954,0.413-2.733,1.055c-2.722,0.982-5.894,1.389-9.708,1.082
		c-3.215-0.259-6.448-1.109-8.964-2.847v-0.006c-0.616-0.428-1.189-0.909-1.712-1.451c-0.861-0.896-1.928-3.098-2.006-5.207v-0.004
		c-0.036-0.906,0.11-1.794,0.534-2.556c2.051-3.7,8.54-2.457,7.485,1.209c-0.227,0.793-0.683,1.177-1.157,1.351h-0.012
		c-0.541,0.188-1.105,0.101-1.376,0.024c-0.029-0.009-0.059-0.018-0.086-0.024v-0.006c-0.568-0.258-0.825-1.38-0.645-1.69
		c0.135-0.229-0.322-0.234-0.702-0.133c-0.28,0.077-0.905,0.661-1.111,1.821c0,0.004,0.013,0.012,0.013,0.018
		c0,0.007-0.017,0.016-0.02,0.026c-0.036,0.221-0.061,0.458-0.062,0.721c-0.01,1.258,1.03,1.99,1.149,2.02
		c0.118,0.034,0.381,0.1,0.584-0.03c0.198-0.128,2.097-2.031,3.949-2.747v-0.002c0.043-0.016,0.085-0.032,0.127-0.047
		c2.133-0.763,3.014-1.893,8.156-1.201c0.788,0.107,1.637,0.572,2.232,1.248h0.002c0.489,0.555,0.811,1.255,0.797,2.013
		c-0.05,2.484-2.531,2.915-2.922,2.905c-0.391-0.009-1.786-0.047-1.718-1.518c0.067-1.469,1.002-1.202,1.002-1.202
		s0.516,0.005,0.626,0.174c0.112,0.167,0.166,0.263,0.273,0.196c0.152-0.096,0.348-0.451,0.256-0.636
		c-0.671-1.361-3.448-0.769-4.593-0.623c-2.44,0.311-6.517,2.567-6.561,2.994c-0.073,0.745,6.482,1.854,6.482,1.854
		c5.488,0.389,9.822-1.026,10.474-1.398c0.652-0.371,0.713-0.524,0.64-0.999c-0.044-0.295-0.676-1.825-2.745-3.757
		c-1.262-1.179-3.059-2.505-5.586-3.792c-5.727-2.916-13.34-4.125-19.066-3.865c0.11,0.56,0.503,3.878,1.646,7.657
		c0,0,1.602,4.598,2.887,6.664v0.005c0.013,0.023,0.027,0.048,0.042,0.071c1.657,2.646,3.417,4.795,5.184,6.589h0.002
		c2.924,2.969,5.864,4.97,8.367,6.665c0.448,0.304,0.885,0.597,1.303,0.885c4.166,2.864,11.307,5.623,13.506,6.137
		c2.328,0.544,4.953,1.249,4.898,0.625c-0.05-0.626-1.279-2.534-2.269-6.594c-0.082-0.339-0.158-0.689-0.229-1.052
		c-0.391-2.007-0.603-4.358-0.698-6.662c-0.103-2.439-0.075-4.822,0.008-6.667V21.81c0.058-1.209,0.136-2.19,0.215-2.814
		c0.155-1.179,0.592-2.478,1.19-3.845v-0.002c0.746-1.696,1.75-3.495,2.79-5.294c1.883-3.247,3.667-4.487,6.274-6.26
		c2.606-1.774,5.554-1.514,6.909-1.478c1.356,0.036,3.323,0.326,4.802,1.358c1.479,1.034,2.329,1.893,3.01,2.964
		c0.681,1.069,1.13,3.546,0.893,5.368c-0.189,1.438-1.35,2.816-2.972,3.345h-0.184h0.184c-0.432,0.141-0.896,0.221-1.384,0.226
		c-0.515,0.005-0.936-0.079-1.281-0.223h-0.011c-1.21-0.494-1.488-1.664-1.503-2.051c-0.021-0.502-0.013-2.093,1.936-2.141
		c1.95-0.047,1.716,0.748,1.763,0.88c0.048,0.131,0.283,0.048,0.346-0.024c0.059-0.07,0.93-0.903-0.155-3.367
		c-1.085-2.467-3.549-3.131-4.865-3.167c-1.324-0.036-3.048,0.488-3.169,0.609c-0.118,0.119-0.154,0.024,0.156,0.474
		c0.31,0.45,1.713,5.084,2.011,8.463c0.01,0.11,0.02,0.219,0.029,0.322v0.005c0.229,2.537,0.414,4.184-0.19,6.659
		c-0.025,0.097-0.05,0.197-0.076,0.297c-0.405,1.539-1.164,3.179-1.523,3.787c-0.195,0.333-0.788,1.547-1.757,2.581
		c-0.801,0.857-1.859,1.59-3.158,1.595c-1.912,0.008-2.687-0.878-2.991-1.595v-0.005c-0.152-0.36-0.186-0.68-0.186-0.826
		c0-0.438,0.371-2.142,1.886-2.179c1.736-0.045,1.475,1.396,1.247,1.789c-0.227,0.392-0.455,0.343-0.37,0.582
		c0.083,0.238,0.39,0.331,0.684,0.322c0.542-0.017,1.35-0.631,1.691-1.542c0.029-0.078,0.253-0.563,0.124-0.784
		c-0.037-0.063-0.862-0.321-1.291-0.416c-1.454-0.323-2.436-1.984-3.048-3.605c-0.586-1.55-0.833-3.059-0.84-3.321
		c-0.01-0.439-0.03-2.05,0.57-3.345h0.001c0.136-0.291,0.303-0.563,0.51-0.803c1.12-1.308,1.72-1.476,2.831-1.471
		c0.946,0.005,1.679,0.653,1.799,1.537c0.038,0.275-0.001,0.522-0.103,0.737h-0.003c-0.222,0.454-0.729,0.727-1.347,0.727
		c-0.903,0-1.057-0.559-1.057-0.559s-0.05-0.102-0.125-0.168v-0.006c-0.065-0.066-0.153-0.108-0.251-0.037
		c-0.013,0.01-0.03,0.026-0.049,0.043v0.005c-0.247,0.285-0.85,1.519-0.693,3.649c0.091,1.176,0.55,2.182,1.125,3.004h0.005
		c1.151,1.635,2.763,2.518,2.763,2.518s0.202,0,0.356-0.203c0.066-0.091,0.307-1.031,0.536-2.308v-0.003
		c0.281-1.565,0.548-3.64,0.469-5.282c-0.021-0.44-0.067-0.903-0.132-1.377c-0.474-3.423-1.955-7.412-2.32-7.595
		c-0.42-0.208-0.522-0.104-1.043,0.21c-0.52,0.311-1.459,1.456-2.706,3.539c-0.495,0.823-1.093,2.184-1.625,3.845
		c-0.623,1.945-1.154,4.296-1.313,6.664c-0.049,0.726-0.06,1.454-0.03,2.17c0.059,1.478,0.188,2.995,0.359,4.494
		c0.268,2.331,0.635,4.62,0.996,6.661c0.495,2.785,0.982,5.104,1.193,6.428c0.15,0.922,0.461,2.195,0.968,2.195
		c0.391,0,2.243-6.285,3.283-8.619c0,0,2.13-4.371,3.478-6.665h0.003c1.361-2.311,2.859-4.615,4.346-6.665h0.003
		c1.145-1.575,2.277-2.999,3.333-4.155c0.774-0.852,1.536-1.688,2.31-2.509h0.004c4.533-4.783,9.509-8.866,20.182-10.822
		c12.471-2.287,12.048-1.938,19.877-1.614c3.015,0.167,10.769,0.749,14.475,1.927c3.705,1.179,10.519,3.958,14.614,8.236
		c0.712,0.745,1.354,1.504,1.928,2.273v0.003c1.645,2.21,2.73,4.5,3.287,6.661c0,0,0.506,2.793,0.425,4.046
		c-0.063,1.014-0.258,1.88-0.522,2.618v0.005c-0.743,2.07-2.048,3.203-2.758,3.951c-1.317,1.394-2.945,2.338-4.683,2.709
		c-0.789,0.169-1.601,0.221-2.414,0.144c-0.29-0.026-0.566-0.079-0.829-0.144h3.131l-3.131-0.005
		c-3.908-1.078-4.386-6.81-0.623-6.546c2.463,0.173,2.314,1.713,2.221,2.088c-0.095,0.373-0.023,0.466-0.026,0.823
		c-0.002,0.359,0.739,0.387,1.25,0.261c1.14-0.281,2.491-1.444,3.235-3.286h0.002c0.288-0.712,0.486-1.527,0.543-2.43
		c0.16-2.439-0.181-2.729-0.353-3.314c-0.121-0.41-0.451-0.353-0.663-0.21c-0.212,0.141-0.956,0.413-2.735,1.055
		c-2.72,0.982-5.89,1.389-9.706,1.082c-3.215-0.259-6.448-1.109-8.962-2.847v-0.006c-0.619-0.428-1.195-0.909-1.713-1.451
		c-0.842-0.875-1.865-2.995-1.987-5.058c-0.007-0.016-0.031-0.03-0.031-0.048c0-0.009,0.017-0.02,0.02-0.029
		c-0.002-0.025,0.104-1.871,0.526-2.632c2.049-3.7,8.54-2.457,7.486,1.209c-0.229,0.793-0.684,1.177-1.159,1.351h-0.011
		c-0.542,0.188-1.105,0.101-1.378,0.024c-0.029-0.009-0.055-0.018-0.084-0.024v-0.006c-0.568-0.258-0.827-1.38-0.644-1.69
		c0.136-0.229-0.327-0.234-0.703-0.133c-0.283,0.077-0.91,0.663-1.115,1.829c0,0-0.063,0.481-0.065,0.756
		c-0.008,1.258,1.031,1.99,1.149,2.02c0.121,0.034,0.381,0.1,0.583-0.03c0.199-0.128,2.097-2.031,3.951-2.747v-0.002
		c0.043-0.016,0.082-0.032,0.126-0.047c2.134-0.763,3.015-1.893,8.157-1.201c0.788,0.107,1.637,0.572,2.23,1.248h0.002
		c0.491,0.555,0.813,1.255,0.798,2.013c-0.049,2.484-2.532,2.915-2.923,2.905c-0.391-0.009-1.784-0.047-1.717-1.518
		c0.068-1.469,1.002-1.202,1.002-1.202s0.514,0.005,0.627,0.174c0.114,0.167,0.163,0.263,0.271,0.196
		c0.154-0.096,0.35-0.451,0.259-0.636c-0.669-1.361-3.451-0.769-4.593-0.623c-2.441,0.311-6.517,2.567-6.561,2.994
		c-0.073,0.745,6.481,1.854,6.481,1.854c5.491,0.389,9.823-1.026,10.476-1.398c0.651-0.371,0.708-0.524,0.639-0.999
		c-0.046-0.295-0.676-1.825-2.745-3.757c-1.265-1.179-3.061-2.505-5.586-3.792c-5.728-2.916-13.277-4.27-19.007-4.01
		c0.112,0.563,0.482,3.955,1.615,7.796h0.002c0.66,2.233,1.577,4.614,2.855,6.67v0.005c0.013,0.023,0.029,0.048,0.042,0.071
		c1.657,2.646,3.417,4.795,5.186,6.589c2.924,2.969,5.862,4.97,8.367,6.665c0.45,0.304,0.885,0.597,1.303,0.885
		c4.164,2.864,11.307,5.623,13.506,6.137c2.326,0.544,4.951,1.249,4.9,0.625c-0.054-0.626-0.81-2.534-1.799-6.594
		c-0.083-0.339-0.158-0.689-0.228-1.052c-0.392-2.007-0.603-4.358-0.699-6.662c-0.104-2.439-0.074-4.822,0.009-6.667V21.81
		c0.055-1.209,0.135-2.19,0.215-2.814c0.156-1.179,0.495-2.478,0.993-3.845v-0.002c0.615-1.696,1.472-3.495,2.515-5.294
		c1.881-3.247,3.665-4.487,6.273-6.26c2.609-1.774,5.556-1.514,6.91-1.478c1.358,0.036,3.323,0.326,4.802,1.358
		c1.478,1.034,2.329,1.893,3.01,2.964c0.681,1.069,1.13,3.546,0.891,5.368c-0.188,1.438-1.348,2.816-2.968,3.345h-0.189h0.189
		c-0.434,0.141-0.898,0.221-1.388,0.226c-0.513,0.005-0.933-0.079-1.279-0.223h-0.012c-1.208-0.494-1.486-1.664-1.506-2.051
		c-0.018-0.502-0.01-2.093,1.939-2.141c1.948-0.047,1.713,0.748,1.762,0.88c0.049,0.131,0.286,0.048,0.347-0.024
		c0.06-0.07,0.928-0.903-0.156-3.367c-1.083-2.467-3.548-3.131-4.866-3.167c-1.32-0.036-3.048,0.488-3.165,0.609
		c-0.12,0.119-0.158,0.024,0.153,0.474c0.311,0.45,1.712,5.084,2.012,8.463c0.012,0.11,0.02,0.219,0.029,0.322v0.005
		c0.229,2.537,0.412,4.184-0.191,6.659l0,0c-0.023,0.097-0.051,0.197-0.077,0.297c-0.405,1.539-1.164,3.179-1.521,3.787
		c-0.197,0.333-0.791,1.547-1.758,2.581c-0.803,0.857-1.857,1.59-3.158,1.595c-1.91,0.008-2.687-0.878-2.991-1.595v-0.005
		c-0.151-0.36-0.186-0.68-0.186-0.826c0-0.438,0.371-2.142,1.886-2.179c1.736-0.045,1.472,1.396,1.246,1.789
		c-0.226,0.392-0.454,0.343-0.369,0.582c0.081,0.238,0.389,0.331,0.686,0.322c0.542-0.017,1.347-0.631,1.689-1.542
		c0.029-0.078,0.253-0.563,0.122-0.784c-0.034-0.063-0.86-0.321-1.291-0.416c-1.452-0.323-2.432-1.984-3.046-3.605
		c-0.586-1.55-0.835-3.059-0.842-3.321c-0.008-0.439-0.029-2.05,0.572-3.345h0.003c0.135-0.291,0.3-0.563,0.505-0.803
		c1.123-1.308,1.722-1.476,2.836-1.471c0.945,0.005,1.677,0.653,1.795,1.537c0.04,0.275-0.001,0.522-0.099,0.737h-0.003
		c-0.224,0.454-0.731,0.727-1.349,0.727c-0.901,0-1.06-0.559-1.06-0.559s-0.046-0.102-0.121-0.168v-0.006
		c-0.068-0.066-0.157-0.108-0.252-0.037c-0.013,0.01-0.032,0.026-0.049,0.043v0.005c-0.249,0.285-0.848,1.519-0.691,3.649
		c0.089,1.176,0.548,2.182,1.121,3.004h0.004c1.154,1.635,2.766,2.518,2.766,2.518s0.203,0,0.354-0.203
		c0.068-0.091,0.309-1.031,0.538-2.308v-0.003c0.28-1.565,0.549-3.64,0.47-5.282c-0.02-0.44-0.067-0.903-0.132-1.377
		c-0.475-3.423-1.956-7.412-2.322-7.595c-0.416-0.208-0.521-0.104-1.04,0.21c-0.522,0.311-1.46,1.456-2.709,3.539
		c-0.491,0.823-1.093,2.184-1.623,3.845c-0.625,1.945-1.154,4.296-1.313,6.664c-0.049,0.726-0.063,1.454-0.032,2.17
		c0.061,1.478,0.19,2.995,0.363,4.494c0.265,2.331,0.632,4.62,0.993,6.661c0.496,2.785,0.983,5.104,1.196,6.428
		c0.148,0.922,0.461,2.195,0.966,2.195c0.391,0,1.321-0.333,1.481-2.83c0.089-1.409,0.762-3.455,1.802-5.789
		c0.922-2.071,2.13-4.371,3.478-6.665h0.002c1.36-2.311,2.86-4.615,4.345-6.665h0.007c1.143-1.575,2.275-2.999,3.332-4.155
		c0.776-0.856,1.542-1.693,2.32-2.509h0.001c4.536-4.754,9.527-8.754,20.172-10.822c9.98-1.94,12.276-1.929,20.152-1.605
		c5.078,0.208,9.159,0.625,12.939,1.541c3.78,0.916,11.387,4.047,15.523,8.272c0.842,0.863,1.599,1.736,2.268,2.615v0.001
		c1.708,2.24,2.853,4.509,3.448,6.663v0.002c0.315,1.146,0.477,2.261,0.483,3.32c0.007,1.289-0.159,2.379-0.483,3.342h-0.002
		c-0.645,1.9-1.914,3.296-3.718,4.724c-1.28,1.017-2.332,1.649-3.655,1.941v0.001c-0.676,0.15-1.421,0.212-2.304,0.19
		c-0.439-0.012-0.847-0.079-1.223-0.192c-3.63-1.103-4.267-6.542-0.618-6.542c2.466,0,2.427,1.547,2.358,1.928
		c-0.066,0.381-0.093,0.559-0.068,0.917c0.021,0.357,0.58,0.504,1.095,0.394c0.489-0.107,2.567-1.176,3.423-3.362
		c0.043-0.109,0.083-0.222,0.119-0.339c0.762-2.417,0.327-5.123,0.037-5.436c-0.291-0.313-0.274-0.434-0.475-0.276
		c-0.202,0.156-1.364,0.623-3.141,1.271c-2.543,0.927-5.652,1.118-9.426,0.976c-2.796-0.106-6.842-1.279-9.098-2.86
		c-0.202-0.141-0.39-0.285-0.561-0.433c-1.774-1.531-3.005-3.499-3.018-6.229V15.15c-0.002-0.438,0.029-0.893,0.091-1.37
		c0.603-4.54,8.659-4.464,7.861-0.116c-0.167,0.906-0.681,1.319-1.208,1.486c0,0-0.599,0.17-0.842,0.17
		c-0.566,0-0.948-0.204-1.143-0.557c-0.193-0.353-0.202-1.013-0.1-1.218c0.119-0.238-0.191-0.383-0.558-0.256
		c-0.282,0.099-1.096,0.674-1.276,1.861c-0.036,0.216-0.048,0.455-0.031,0.715c0.081,1.253,1.074,2.048,1.196,2.073
		c0.121,0.023,0.388,0.071,0.58-0.073c0.193-0.145,1.429-1.334,2.512-1.916c0.446-0.239,0.913-0.518,1.426-0.799h0.009
		c1.782-0.963,4.127-1.922,8.084-1.276c0.829,0.136,1.742,0.59,2.379,1.276h-0.251h0.251c0.463,0.496,0.781,1.116,0.814,1.822
		c0.125,2.482-2.322,3.085-2.711,3.102c-0.391,0.019-1.879,0.089-1.913-1.38c-0.037-1.472,1.062-1.348,1.062-1.348
		s0.461,0.035,0.586,0.195c0.126,0.16,0.195,0.266,0.283,0.177c0.088-0.088,0.331-0.515,0.229-0.693
		c-0.762-1.313-3.841-0.67-4.976-0.479c-2.429,0.408-6.247,2.559-6.228,2.986c0.016,0.264,3.922,1.46,6.549,1.75
		c3.979,0.441,9.567-0.808,10.19-1.224c0.626-0.417,0.992-0.575,0.886-1.042c-0.062-0.282-0.747-1.932-2.785-3.864v-0.006
		c-1.333-1.269-3.248-2.661-5.945-3.877c-6.82-3.072-12.371-4.413-18.662-3.859c-0.059,0.005,0.073,0.307,0.073,0.307
		s0.225,3.292,1.527,7.436c0,0,1.597,4.432,2.924,6.661h0.002c0.786,1.318,1.706,2.601,2.787,3.785
		c0.947,1.037,1.863,1.993,2.748,2.877h0.005c2.978,2.958,5.616,5.07,7.971,6.67c0,0,3.798,2.35,5.428,3.176
		c2.274,1.15,3.907,2.014,5.414,2.561c1.506,0.548,1.576,6.264,1.576,6.264c-9.218-2.657-15.66-7.837-20.868-12.001
		c-0.501-0.401-0.991-0.794-1.472-1.172c-2.188-1.727-4.079-3.526-5.722-5.493c-1.686-2.012-3.109-4.2-4.336-6.665v-0.001
		c-1.003-2.016-1.87-4.22-2.636-6.663v-0.002c-0.068-0.22-0.135-0.44-0.203-0.664c-0.673-2.243-0.712-5.864-1.293-5.862
		c-0.677,0-1.499,2.764-1.647,3.688c-0.125,0.772-0.314,1.726-0.527,2.841c-0.35,1.825-0.771,4.078-1.101,6.664v0.002
		c-0.229,1.795-0.413,3.748-0.498,5.829c-0.012,0.276-0.017,0.557-0.017,0.833v0.001c0.009,2.286,0.415,4.627,0.967,6.664v0.001
		c0.609,2.256,1.396,4.145,2.018,5.178c1.249,2.083,3.487,3.812,4.008,4.125c0.521,0.311,0.704,0.053,0.834-0.34
		c0.148-0.439,0.815-5.279,0.991-8.903c0-0.02,0.002-0.037,0.002-0.062c0.11-2.502-0.214-5.403-1.081-6.664h-0.002
		c-0.161-0.233-0.344-0.412-0.544-0.518c-0.225-0.119-0.382-0.073-0.382-0.073s-0.134,0.211-0.327,0.589
		c-0.526,1.007-1.513,3.196-1.702,5.763c-0.025,0.329-0.05,0.627-0.071,0.902h-0.02v0.001h0.02
		c-0.002,0.011-0.002,0.016-0.003,0.028c0.001,0.007,0.01,0.015,0.01,0.022c0,0.01-0.014,0.021-0.015,0.032
		c-0.137,1.583-0.219,2.332,0.152,2.904c0.137,0.214,0.346,0.085,0.563,0.045c0.215-0.04,0.293-0.199,0.513-0.241
		c0.583-0.11,1.138,0.225,1.304,0.786c0.322,1.085-1.154,1.888-2.218,1.873c-2.192-0.023-2.689-3.083-2.507-5.189
		c0.007-0.086,0.018-0.175,0.024-0.262h0.041v-0.002h-0.041c0.241-2.571,0.722-5.129,1.503-6.663h0.002
		c0.096-0.187,0.195-0.356,0.299-0.511c1.276-1.877-0.11-1.935-0.26-1.797c-0.109,0.102-0.328,0.083-0.102,0.478
		c0.227,0.393-0.359,0.951-1.143,0.921c-1.514-0.059-1.621-1.559-1.621-1.998c0-0.438,0.679-2.265,3.021-2.213
		c3.376,0.076,5.204,2.946,6.113,5.12c0.354,0.845,0.567,1.585,0.682,2.014c0.451,1.708,0.609,3.137,0.604,4.651h-0.2h0.2
		c-0.001,0.925-0.066,1.879-0.161,2.952c-0.299,3.38-0.67,6.016-0.828,6.659c-0.129,0.532-0.169,0.582-0.049,0.7
		c0.115,0.12,1.353,0.648,2.673,0.611c1.32-0.035,3.251-0.372,4.22-2.884c0.334-0.867,0.197-1.782,0.124-1.837
		c-0.225-0.173-0.358-0.25-0.408-0.12c-0.195,0.513-1.022,0.775-1.586,0.565c-2.384-0.886-0.604-4.579,2.072-4.474
		c2.318,0.089,5,3.437,2.218,8.382c-1.673,2.971-4.295,3.567-7.623,3.977c-2.582,0.318-6.146-0.671-9.143-2.911
		c-2.53-1.891-3.917-3.766-5.366-6.572c-0.998-1.934-1.521-3.342-1.967-5.048c-0.196-0.756-0.376-1.568-0.574-2.51
		c-0.315-1.496-0.537-2.865-0.679-4.156v-0.005c-0.251-2.338-0.236-4.447-0.021-6.66v-0.003c0.192-2.042,0.559-4.177,1.034-6.661
		v-0.006c0.005-0.013,0.006-0.025,0.01-0.039c0.493-2.583,1.68-5.896,1.732-6.521c0.052-0.625-4.866,0.1-7.135,0.847
		c-2.304,0.761-8.228,2.343-12.392,5.208c-0.238,0.162-0.479,0.332-0.719,0.511h-0.005c-2.23,1.611-4.654,3.742-7.137,6.664v0.002
		c-1.591,1.873-3.206,4.071-4.808,6.663h-0.115h0.115c-0.396,0.64-0.791,1.301-1.184,1.988c-0.946,1.657-1.716,3.23-2.34,4.677
		c0,0-2.66,9.361-2.66,9.278l-0.04,0.349c0,0,1.204,0.045,1.975,0.035c5.645-0.073,7.197-0.461,14.051-3.456
		c3.726-1.626,6.71-3.88,8.99-6.206v-0.002c2.289-2.334,3.868-4.741,4.776-6.663h0.002c0.588-1.244,0.893-2.278,0.923-2.953
		c0.02-0.41,0.038-1.027-0.371-0.983c-4.462,0.484-7.565,0.865-11.873,2.906c-0.635,0.3-1.323,0.653-2.012,1.03h-0.004
		c-2.676,1.458-5.382,3.271-5.325,3.863c0.043,0.424,4.622,1.755,7.551,1.196c2.46-0.47,5.035-1.584,5.705-2.946
		c0.089-0.185-0.117-0.4-0.21-0.483c-0.097-0.081-0.161,0.03-0.272,0.198c-0.114,0.168-0.571,0.236-0.571,0.236
		s-1.088,0.2-1.154-1.271c-0.015-0.333,0.051-0.595,0.166-0.793v-0.005c0.391-0.686,1.348-0.706,1.647-0.714
		c0.219-0.006,1.088,0.157,1.823,0.717h0.002c0.581,0.443,1.078,1.134,1.098,2.188c0.035,1.98-2.029,3.405-4.363,4.479v0.001
		c-0.624,0.288-1.267,0.549-1.892,0.791c-3.331,1.281-8.531-0.155-10.396-0.787h-0.015c-0.399-0.134-0.644-0.229-0.678-0.252
		c-0.203-0.132-0.464-0.066-0.584-0.033c-0.041,0.012-0.104,0.109-0.168,0.281h-0.051c0,0.001,0.002,0.001,0.002,0.001h0.049
		c-0.125,0.332-0.256,0.938-0.252,1.763c0.01,1.674,1.458,2.322,1.797,2.415c0.378,0.101,0.695-0.24,0.559-0.469
		c-0.192-0.326,0.285-1.284,0.911-1.462c0.51-0.142,2.018-0.338,2.364,1.116c1.025,4.299-7.753,5.237-8.69-1.635
		c-0.085-0.628-0.096-1.2-0.04-1.729h0.03h-0.03c0.221-2.227,1.572-3.68,3.164-5.197c0.556-0.529,1.13-1.018,1.71-1.468
		c2.57-1.999,5.294-3.257,7.363-4.026c1.965-0.729,4.112-1.556,6.81-2.343c0.337-0.098,0.699-0.197,1.066-0.295h0.002
		c1.679-0.443,3.479-0.842,3.812-0.954c0.313-0.104,0.972,0.13,0.665-0.663c-0.911-2.363-2.919-3.037-5.367-3.037
		c-0.952,0-1.521,0.538-1.521,1.229c0,0.16,0.562-0.06,0.861,0.1c0.413,0.224,0.618,0.703,0.615,1.042
		c-0.01,0.905-0.402,1.655-1.802,1.66c-2.757,0.011-3.736-4.138-0.772-6.042c0.753-0.483,1.759-0.823,3.051-0.913
		c1.632-0.113,3.213,0.18,4.637,0.913c0.855,0.439,1.652,1.036,2.372,1.797c0.805,0.854,2.226,2.204,2.809,4.867v0.005
		c0.114,0.516,0.195,1.082,0.234,1.702c0.098,1.54-0.156,3.214-0.744,4.958c-0.728,2.154-1.967,4.417-3.679,6.665
		c-0.349,0.456-0.714,0.909-1.1,1.361c-3.83,4.505-11.146,8.535-14.81,9.836c-5.063,1.797-11.749,2.504-19.38,2.719
		c-10.982,0.31-17.989-2.319-27.292-7.555c-1.96-1.102-5.229-3.526-8.522-6.361c-2.463-2.12-4.939-4.466-6.889-6.665
		c-1.182-1.33-2.17-2.606-2.847-3.741c-0.575-0.929-1.117-1.899-1.622-2.921h-0.001c-1.005-2.017-1.872-4.222-2.638-6.667v-0.004
		c-0.07-0.218-0.137-0.439-0.203-0.662c-0.673-2.243-0.715-5.864-1.293-5.862c-0.679,0-1.501,2.764-1.649,3.688
		c-0.123,0.772-0.313,1.726-0.525,2.841c-0.352,1.825-0.771,4.08-1.103,6.664h-0.054l-0.003,0.002h0.057
		c-0.228,1.795-0.412,3.748-0.498,5.829c-0.012,0.276-0.017,0.557-0.017,0.833v0.001c0.009,2.286,0.414,4.627,0.966,6.664v0.001
		c0.61,2.256,1.396,4.145,2.019,5.178c1.25,2.083,3.489,3.812,4.012,4.125c0.518,0.311,0.701,0.053,0.832-0.34
		c0.146-0.439,0.815-5.279,0.988-8.903c0-0.02,0.001-0.037,0.001-0.062c0.114-2.502-0.212-5.403-1.079-6.664h-0.002
		c-0.162-0.233-0.343-0.412-0.542-0.518c-0.227-0.119-0.383-0.073-0.383-0.073s-0.132,0.211-0.33,0.589
		c-0.524,1.007-1.509,3.196-1.701,5.763c-0.024,0.329-0.049,0.627-0.071,0.902h-0.019c0,0.001,0.002,0.001,0.002,0.001h0.017
		c-0.143,1.647-0.231,2.402,0.145,2.986c0.139,0.214,0.347,0.085,0.563,0.045c0.218-0.04,0.296-0.199,0.513-0.241
		c0.584-0.11,1.138,0.225,1.304,0.786c0.322,1.085-1.155,1.888-2.217,1.873c-2.191-0.023-2.689-3.083-2.508-5.189
		c0.009-0.083,0.015-0.163,0.023-0.243c0-0.002-0.004-0.004-0.004-0.006c0-0.004,0.728-5.145,1.508-6.679h0.003
		c0.097-0.187,0.194-0.356,0.3-0.511c1.273-1.877-0.114-1.935-0.261-1.797c-0.11,0.102-0.328,0.083-0.103,0.478
		c0.227,0.393-0.361,0.951-1.141,0.921c-1.513-0.059-1.62-1.559-1.62-1.998c0-0.438,0.677-2.265,3.02-2.213
		c3.377,0.076,5.203,2.946,6.115,5.12c0.352,0.845,0.566,1.585,0.681,2.014c0.447,1.708,0.607,3.137,0.604,4.651h-0.201h0.201
		c-0.003,0.925-0.066,1.879-0.162,2.952c-0.3,3.38-0.673,6.016-0.829,6.659c-0.13,0.532-0.169,0.582-0.051,0.7
		c0.121,0.12,1.354,0.648,2.677,0.611c1.32-0.035,3.248-0.372,4.217-2.884c0.333-0.867,0.198-1.782,0.123-1.837
		c-0.221-0.173-0.356-0.25-0.405-0.12c-0.198,0.513-1.022,0.775-1.587,0.565c-2.384-0.886-0.604-4.579,2.072-4.474
		c2.316,0.089,5.001,3.437,2.218,8.382c-1.671,2.971-4.295,3.567-7.624,3.977c-2.581,0.318-6.146-0.671-9.142-2.911
		c-2.531-1.891-3.915-3.766-5.366-6.572c-0.997-1.934-1.634-3.342-2.148-5.048c-0.227-0.756-0.43-1.568-0.629-2.51
		c-0.317-1.496-0.525-2.865-0.646-4.156c0,0-0.15-4.468,0.107-6.665h0.044c0-0.001-0.005-0.003-0.005-0.003h-0.039
		c0.234-2.042,0.631-4.177,1.108-6.661v-0.006c0.003-0.013,0.005-0.025,0.008-0.039c0.497-2.583,1.682-5.896,1.734-6.521
		c0.054-0.625-4.865,0.1-7.136,0.847c-2.301,0.761-8.225,2.343-12.391,5.208c-0.238,0.162-0.478,0.332-0.72,0.511h-0.005
		c-2.228,1.611-4.653,3.742-7.136,6.664v0.002c-1.591,1.873-3.204,4.071-4.81,6.663h-0.113h0.113
		c-0.394,0.64-0.787,1.301-1.182,1.988c-0.945,1.657-1.714,3.23-2.338,4.677c0,0-2.66,9.361-2.66,9.278l-0.04,0.349
		c0,0,1.203,0.045,1.973,0.035c5.645-0.073,7.197-0.461,14.052-3.456c3.723-1.626,6.707-3.88,8.989-6.206v-0.002
		c2.289-2.334,3.868-4.741,4.775-6.663h0.003c0.59-1.244,0.894-2.278,0.923-2.953c0.02-0.41,0.038-1.027-0.369-0.983
		c-4.466,0.484-7.563,0.865-11.87,2.906c-0.64,0.3-1.325,0.653-2.016,1.03h-0.003c-2.675,1.458-5.386,3.271-5.327,3.863
		c0.043,0.424,4.622,1.755,7.551,1.196c2.46-0.47,5.037-1.584,5.705-2.946c0.093-0.185-0.116-0.4-0.212-0.483
		c-0.095-0.081-0.158,0.03-0.271,0.198c-0.112,0.168-0.569,0.236-0.569,0.236s-1.089,0.2-1.156-1.271
		c-0.015-0.333,0.053-0.595,0.165-0.793v-0.005c0.391-0.686,1.348-0.706,1.65-0.714c0.218-0.006,1.084,0.157,1.82,0.717h0.001
		c0.583,0.443,1.08,1.134,1.1,2.188c0.035,1.98-2.028,3.405-4.365,4.479v0.001c-0.622,0.288-1.263,0.549-1.89,0.791
		c-3.329,1.281-8.531-0.155-10.396-0.787h-0.015c-0.399-0.134-0.642-0.229-0.678-0.252c-0.201-0.132-0.464-0.066-0.583-0.033
		c-0.042,0.012-0.104,0.109-0.171,0.281c0,0-0.254,0.94-0.249,1.765c0.012,1.674,1.457,2.322,1.8,2.415
		c0.376,0.101,0.689-0.24,0.557-0.469c-0.194-0.326,0.283-1.284,0.91-1.462c0.511-0.142,2.019-0.338,2.363,1.116
		c1.024,4.299-7.752,5.237-8.69-1.635c-0.083-0.614-0.089-1.171-0.042-1.688c-0.002-0.01-0.02-0.018-0.02-0.027
		c0-0.012,0.021-0.022,0.024-0.035c0.231-2.214,1.574-3.664,3.161-5.175c0.558-0.529,1.129-1.018,1.71-1.468
		c2.57-1.999,5.293-3.257,7.363-4.026c1.967-0.729,4.114-1.556,6.809-2.343c0.339-0.098,0.7-0.197,1.067-0.295h0.004
		c1.677-0.443,3.479-0.842,3.811-0.954c0.312-0.104,0.971,0.13,0.663-0.663c-0.912-2.363-2.918-3.037-5.366-3.037
		c-0.952,0-1.519,0.538-1.519,1.229c0,0.16,0.56-0.06,0.859,0.1c0.413,0.224,0.618,0.703,0.615,1.042
		c-0.01,0.905-0.403,1.655-1.801,1.66c-2.759,0.011-3.737-4.138-0.774-6.042h0.003c0.749-0.483,1.757-0.823,3.051-0.913
		c1.63-0.113,3.211,0.18,4.635,0.913c0.855,0.439,1.653,1.036,2.372,1.797c0.808,0.854,2.225,2.204,2.809,4.867v0.005
		c0.114,0.516,0.195,1.082,0.234,1.702c0.101,1.54-0.156,3.214-0.742,4.958c-0.729,2.154-1.967,4.417-3.681,6.665
		c-0.347,0.456-0.713,0.909-1.098,1.361c-3.834,4.505-11.146,8.535-14.812,9.836c-5.064,1.797-11.751,2.504-19.38,2.719
		c-10.982,0.31-17.989-2.319-27.292-7.555c-1.982-1.116-5.303-3.529-8.63-6.356h-0.005c-2.502-2.119-5.01-4.468-6.955-6.668h-0.003
		c-1.099-1.24-2.021-2.432-2.66-3.507c-0.588-0.962-1.159-2.023-1.703-3.156h-0.002c-0.991-2.051-1.89-4.332-2.626-6.667v-0.002
		c-0.071-0.221-0.138-0.441-0.205-0.664c-0.672-2.243-0.711-5.864-1.292-5.862c-0.679,0-1.5,2.764-1.649,3.688
		c-0.124,0.772-0.31,1.726-0.524,2.841c-0.354,1.825-0.773,4.08-1.102,6.664c0,0-0.414,3.75-0.499,5.831
		c-0.011,0.276-0.016,0.557-0.016,0.833c0,0,0.415,4.628,0.967,6.665v0.001c0.608,2.256,1.396,4.145,2.017,5.178
		c1.251,2.083,3.489,3.812,4.009,4.125c0.521,0.311,0.705,0.053,0.833-0.34c0.148-0.439,0.816-5.279,0.99-8.903
		c0-0.02,0.002-0.037,0.002-0.062h0.001c0.112-2.502-0.213-5.403-1.081-6.664h-0.001c-0.163-0.233-0.346-0.412-0.544-0.518
		c-0.225-0.119-0.383-0.073-0.383-0.073s-0.13,0.211-0.329,0.589c-0.525,1.007-1.509,3.196-1.701,5.763
		c-0.024,0.329-0.049,0.627-0.071,0.902c0,0-0.232,2.404,0.145,2.987c0.139,0.214,0.347,0.085,0.562,0.045
		c0.219-0.04,0.299-0.199,0.515-0.241c0.581-0.11,1.137,0.225,1.305,0.786c0.322,1.085-1.156,1.888-2.22,1.873
		c-2.191-0.023-2.689-3.083-2.505-5.189c0.008-0.086,0.016-0.175,0.024-0.262c0,0,0.723-5.131,1.502-6.665h0.004
		c0.094-0.187,0.195-0.356,0.298-0.511c1.276-1.877-0.112-1.935-0.261-1.797c-0.109,0.102-0.327,0.083-0.101,0.478
		c0.225,0.393-0.361,0.951-1.144,0.921c-1.512-0.059-1.618-1.559-1.618-1.998c0-0.438,0.678-2.265,3.021-2.213
		c3.375,0.076,5.204,2.946,6.113,5.12c0.353,0.845,0.568,1.585,0.679,2.014c0.451,1.708,0.608,3.137,0.604,4.651h-0.2h0.202
		c-0.003,0.925-0.066,1.879-0.161,2.952c-0.301,3.38-0.673,6.016-0.829,6.659c-0.13,0.532-0.171,0.582-0.05,0.7
		c0.12,0.12,1.354,0.648,2.675,0.611c1.321-0.035,3.249-0.372,4.218-2.884c0.334-0.867,0.199-1.782,0.126-1.837
		c-0.225-0.173-0.358-0.25-0.407-0.12c-0.199,0.513-1.022,0.775-1.588,0.565c-2.383-0.886-0.604-4.579,2.073-4.474
		c2.316,0.089,4.999,3.437,2.215,8.382c-1.668,2.971-4.294,3.567-7.62,3.977c-2.582,0.318-6.146-0.671-9.145-2.911
		c-2.53-1.891-3.914-3.766-5.364-6.572c-0.998-1.934-1.636-3.342-2.149-5.048c-0.228-0.756-0.43-1.568-0.628-2.51
		c-0.308-1.447-0.51-2.771-0.632-4.025c-0.005-0.009-0.165-4.558,0.089-6.757c0-0.002-0.011-0.006-0.011-0.007
		c0-0.003,0.011-0.005,0.011-0.008c0.002-0.007,0.002-0.015,0.003-0.023H247c0.001-0.001,0.005-0.003,0.005-0.003h-0.033
		c0.234-2.042,0.632-4.177,1.109-6.661v-0.006c0.003-0.013,0.005-0.025,0.008-0.039c0.497-2.583,1.682-5.896,1.732-6.521
		c0.054-0.625-4.865,0.1-7.134,0.847c-2.302,0.761-8.225,2.343-12.393,5.208c-0.236,0.162-0.477,0.332-0.718,0.511h-0.005
		c-2.23,1.611-4.653,3.742-7.136,6.664v0.002c-1.591,1.873-3.206,4.071-4.809,6.663h-0.116h0.116
		c-0.396,0.64-0.788,1.301-1.182,1.988c-0.946,1.657-1.714,3.23-2.341,4.677l-0.042,0.003h-0.117c0,0.003,0,0.007-0.001,0.009
		l0.119-0.009h0.042c-2.395,5.574-2.659,9.358-2.659,9.275l-0.039,0.349c0,0,1.202,0.045,1.973,0.035
		c5.643-0.073,7.196-0.461,14.051-3.456c3.723-1.626,6.708-3.88,8.988-6.206v-0.002c2.291-2.334,3.87-4.741,4.776-6.663h0.002
		c0.591-1.244,0.896-2.278,0.926-2.953c0.018-0.41,0.034-1.027-0.375-0.983c-4.462,0.484-7.563,0.864-11.872,2.906
		c-0.638,0.3-1.323,0.653-2.014,1.03h-0.003c-2.673,1.458-5.382,3.271-5.322,3.863c0.039,0.424,4.62,1.755,7.547,1.196
		c2.46-0.47,5.037-1.584,5.706-2.946c0.091-0.185-0.117-0.4-0.211-0.483c-0.094-0.081-0.156,0.03-0.271,0.198
		c-0.114,0.168-0.57,0.236-0.57,0.236s-1.087,0.2-1.156-1.271c-0.016-0.333,0.051-0.595,0.166-0.793v-0.005
		c0.389-0.686,1.347-0.706,1.648-0.714c0.218-0.006,1.087,0.157,1.823,0.717h0.001c0.58,0.443,1.078,1.134,1.097,2.188
		c0.036,1.98-2.028,3.405-4.363,4.479v0.001c-0.624,0.288-1.265,0.549-1.894,0.791c-3.328,1.281-8.529-0.155-10.395-0.787h-0.015
		c-0.399-0.134-0.642-0.229-0.677-0.252c-0.204-0.132-0.464-0.066-0.584-0.033c-0.041,0.012-0.103,0.109-0.169,0.281h-0.163v0.001
		h0.163c-0.124,0.332-0.256,0.938-0.251,1.763c0.012,1.674,1.46,2.322,1.801,2.415c0.375,0.101,0.692-0.24,0.557-0.469
		c-0.194-0.326,0.283-1.284,0.91-1.462c0.511-0.142,2.019-0.338,2.364,1.116c1.024,4.299-7.752,5.237-8.69-1.635
		c-0.086-0.628-0.096-1.2-0.042-1.729h0.2h-0.2c0.223-2.227,1.573-3.68,3.165-5.197c0.557-0.529,1.13-1.018,1.709-1.468
		c2.572-1.999,5.294-3.257,7.365-4.026c1.967-0.729,4.112-1.556,6.808-2.343c0.339-0.098,0.7-0.197,1.066-0.295h0.005
		c1.677-0.443,3.478-0.842,3.812-0.954c0.311-0.104,0.97,0.13,0.664-0.663c-0.914-2.363-2.919-3.037-5.369-3.037
		c-0.949,0-1.521,0.538-1.521,1.229c0,0.16,0.565-0.06,0.861,0.1c0.415,0.224,0.62,0.703,0.617,1.042
		c-0.01,0.905-0.404,1.655-1.802,1.66c-2.756,0.011-3.736-4.138-0.773-6.042h0.002c0.752-0.483,1.756-0.823,3.052-0.913
		c1.631-0.113,3.21,0.18,4.635,0.913c0.854,0.439,1.652,1.036,2.372,1.797c0.806,0.854,2.225,2.204,2.808,4.867v0.005
		c0.112,0.516,0.194,1.082,0.234,1.702c0.1,1.54-0.155,3.214-0.744,4.958c-0.728,2.154-1.966,4.417-3.681,6.665
		c-0.345,0.456-0.711,0.909-1.097,1.361c-3.833,4.505-11.146,8.535-14.812,9.836c-5.063,1.797-11.75,2.504-19.379,2.719
		c-10.981,0.31-17.989-2.319-27.29-7.555c-1.983-1.116-5.304-3.529-8.632-6.356h-0.007c-2.5-2.119-5.007-4.468-6.955-6.668h-0.001
		c-1.099-1.24-2.019-2.432-2.661-3.507c-0.587-0.964-1.16-2.023-1.705-3.156h-0.002c-0.988-2.049-1.886-4.327-2.623-6.667
		c-0.068-0.222-0.138-0.443-0.204-0.666c-0.672-2.243-0.714-5.864-1.293-5.862c-0.679,0-1.499,2.764-1.648,3.688
		c-0.125,0.772-0.312,1.726-0.527,2.841c-0.35,1.825-0.771,4.08-1.102,6.664l-0.023,0.002h-0.101l-0.001,0.008l0.103-0.008h0.023
		c-0.227,1.795-0.412,3.748-0.497,5.829c-0.011,0.276-0.016,0.557-0.016,0.833v0.001c0.008,2.286,0.415,4.627,0.967,6.664v0.001
		c0.61,2.256,1.396,4.145,2.017,5.178c1.251,2.083,3.488,3.812,4.01,4.125c0.518,0.311,0.703,0.053,0.833-0.34
		c0.147-0.439,0.816-5.279,0.99-8.903c0-0.02,0.002-0.037,0.002-0.062h0.001c0.11-2.502-0.213-5.403-1.082-6.664h-0.002
		c-0.163-0.233-0.342-0.412-0.544-0.518c-0.224-0.119-0.382-0.073-0.382-0.073s-0.131,0.211-0.33,0.589h-0.338h0.338
		c-0.523,1.007-1.509,3.196-1.701,5.763c-0.024,0.329-0.048,0.627-0.072,0.902h-0.056v0.001h0.056
		c-0.14,1.647-0.23,2.402,0.147,2.986c0.138,0.214,0.346,0.085,0.562,0.045c0.218-0.04,0.296-0.199,0.512-0.241
		c0.584-0.11,1.138,0.225,1.305,0.786c0.323,1.085-1.154,1.888-2.216,1.873c-2.192-0.023-2.688-3.083-2.507-5.189
		c0.007-0.086,0.016-0.175,0.026-0.262h0.106v-0.002h-0.106c0.239-2.571,0.721-5.129,1.502-6.663h0.003
		c0.095-0.187,0.196-0.356,0.298-0.511c1.275-1.877-0.114-1.935-0.261-1.797c-0.108,0.102-0.328,0.083-0.101,0.478
		c0.226,0.393-0.362,0.951-1.143,0.921c-1.512-0.059-1.62-1.559-1.62-1.998c0-0.438,0.678-2.265,3.022-2.213
		c3.375,0.076,5.204,2.946,6.113,5.12c0.353,0.845,0.567,1.585,0.68,2.014c0.45,1.708,0.608,3.137,0.605,4.651h-0.202h0.202
		c-0.004,0.925-0.068,1.879-0.162,2.952c-0.301,3.38-0.671,6.016-0.831,6.659c-0.129,0.532-0.168,0.582-0.048,0.7
		c0.119,0.12,1.352,0.648,2.674,0.611c1.32-0.035,3.249-0.372,4.219-2.884c0.333-0.867,0.197-1.782,0.124-1.837
		c-0.223-0.173-0.357-0.25-0.407-0.12c-0.197,0.513-1.023,0.775-1.587,0.565c-2.383-0.886-0.604-4.579,2.074-4.474
		c2.316,0.089,4.999,3.437,2.216,8.382c-1.669,2.971-4.295,3.567-7.624,3.977c-2.579,0.318-6.145-0.671-9.142-2.911
		c-2.53-1.891-3.915-3.766-5.364-6.572c-0.999-1.934-1.636-3.342-2.15-5.048c-0.227-0.756-0.43-1.568-0.628-2.51
		c-0.315-1.496-0.527-2.865-0.647-4.156v-0.005c-0.203-2.177-0.157-4.156,0.059-6.201l0.055-0.458
		c0.26-1.577,1.11-6.697,1.112-6.709c0.496-2.583,1.681-5.896,1.733-6.521c0.053-0.625-4.865,0.1-7.134,0.847
		c-2.303,0.761-8.227,2.343-12.393,5.208c-0.237,0.162-0.477,0.332-0.718,0.511h-0.005c-2.23,1.611-4.653,3.742-7.136,6.664v0.002
		c-1.591,1.873-3.206,4.071-4.809,6.663h-0.115h0.115c-0.396,0.64-0.79,1.301-1.183,1.988c-0.948,1.657-1.715,3.23-2.34,4.677v0.003
		c-2.396,5.574-2.658,9.358-2.658,9.275l-0.042,0.349c0,0,1.204,0.045,1.973,0.035c5.645-0.073,7.198-0.461,14.052-3.456
		c3.724-1.626,6.707-3.88,8.989-6.206v-0.002c2.288-2.334,3.868-4.741,4.777-6.663h0.001c0.589-1.244,0.895-2.278,0.924-2.953
		c0.02-0.41,0.037-1.027-0.372-0.983c-4.465,0.484-7.563,0.865-11.872,2.906c-0.635,0.3-1.324,0.653-2.013,1.03h-0.005
		c-2.674,1.458-5.381,3.271-5.324,3.863c0.042,0.424,4.622,1.755,7.55,1.196c2.46-0.47,5.036-1.584,5.705-2.946
		c0.092-0.185-0.117-0.4-0.212-0.483c-0.094-0.081-0.157,0.03-0.27,0.198c-0.113,0.168-0.571,0.236-0.571,0.236
		s-1.088,0.2-1.155-1.271c-0.014-0.333,0.051-0.595,0.167-0.793v-0.005c0.389-0.686,1.346-0.706,1.648-0.714
		c0.218-0.006,1.087,0.157,1.823,0.717h0.001c0.581,0.443,1.077,1.134,1.098,2.188c0.035,1.98-2.03,3.405-4.365,4.479v0.001
		c-0.623,0.288-1.265,0.549-1.891,0.791c-3.33,1.281-8.53-0.155-10.396-0.787h-0.014c-0.398-0.134-0.644-0.229-0.677-0.252
		c-0.204-0.132-0.466-0.066-0.586-0.033c-0.042,0.012-0.103,0.109-0.168,0.281v0.001c-0.125,0.332-0.255,0.938-0.251,1.763
		c0.012,1.674,1.459,2.322,1.799,2.415c0.376,0.101,0.692-0.24,0.557-0.469c-0.192-0.326,0.285-1.284,0.913-1.462
		c0.508-0.142,2.016-0.338,2.361,1.116c1.024,4.299-7.751,5.237-8.689-1.635c-0.085-0.628-0.097-1.2-0.042-1.729
		c0.222-2.227,1.572-3.68,3.166-5.197c0.557-0.529,1.128-1.018,1.708-1.468c2.572-1.999,5.293-3.257,7.365-4.026
		c1.966-0.729,4.113-1.556,6.808-2.343c0.337-0.098,0.701-0.197,1.068-0.295h0.002c1.678-0.443,3.479-0.842,3.813-0.954
		c0.312-0.104,0.969,0.13,0.664-0.663c-0.914-2.363-2.919-3.037-5.368-3.037c-0.951,0-1.52,0.538-1.52,1.229
		c0,0.16,0.562-0.06,0.859,0.1c0.414,0.224,0.619,0.703,0.616,1.042c-0.009,0.905-0.403,1.655-1.801,1.66
		c-2.757,0.011-3.737-4.138-0.772-6.042h0.001c0.75-0.483,1.755-0.823,3.05-0.913c1.631-0.113,3.211,0.18,4.635,0.913
		c0.856,0.439,1.653,1.036,2.373,1.797c0.807,0.854,2.226,2.204,2.809,4.867v0.005c0.113,0.516,0.195,1.082,0.235,1.702
		c0.099,1.54-0.157,3.214-0.745,4.958c-0.728,2.154-1.966,4.417-3.68,6.665c-0.346,0.456-0.714,0.909-1.098,1.361
		c-3.832,4.505-11.147,8.535-14.812,9.836c-5.063,1.797-11.749,2.504-19.38,2.719c-10.982,0.31-17.988-2.319-27.292-7.555
		c-1.982-1.116-5.301-3.529-8.63-6.356h-0.006c-2.501-2.119-5.009-4.468-6.955-6.668H63.18c-1.1-1.24-2.021-2.432-2.662-3.507
		c-0.598-0.973-1.173-2.029-1.715-3.156h-0.001c-0.987-2.042-1.873-4.304-2.612-6.667v-0.002c-0.068-0.22-0.138-0.44-0.205-0.664
		c-0.672-2.243-0.714-5.864-1.293-5.862c-0.678,0-1.499,2.764-1.649,3.688c-0.124,0.772-0.311,1.726-0.525,2.841
		c-0.35,1.825-0.773,4.08-1.102,6.664h-0.172v0.002h0.172c-0.228,1.795-0.412,3.748-0.499,5.829
		c-0.011,0.276-0.016,0.557-0.016,0.833v0.001c0.007,2.286,0.414,4.627,0.966,6.664v0.001c0.609,2.256,1.396,4.145,2.018,5.178
		c1.25,2.083,3.489,3.812,4.011,4.125c0.52,0.311,0.702,0.053,0.832-0.34c0.147-0.439,0.816-5.279,0.988-8.903
		c0-0.02,0.003-0.037,0.004-0.062c0.112-2.502-0.213-5.403-1.083-6.664h0c-0.162-0.233-0.342-0.412-0.544-0.518
		c-0.224-0.119-0.379-0.073-0.379-0.073s-0.134,0.211-0.332,0.589h-0.337h0.337c-0.524,1.007-1.509,3.196-1.7,5.763
		c-0.024,0.329-0.05,0.627-0.073,0.902v0.001c-0.141,1.647-0.23,2.402,0.146,2.986c0.137,0.214,0.346,0.085,0.562,0.045
		c0.219-0.04,0.297-0.199,0.513-0.241c0.583-0.11,1.14,0.225,1.304,0.786c0.324,1.085-1.155,1.888-2.216,1.873
		c-2.192-0.023-2.69-3.083-2.508-5.189c0.008-0.086,0.017-0.175,0.024-0.262v-0.002c0.242-2.571,0.723-5.129,1.502-6.663h0.003
		c0.096-0.187,0.195-0.356,0.299-0.511c1.273-1.877-0.114-1.935-0.261-1.797c-0.11,0.102-0.329,0.083-0.103,0.478
		c0.228,0.393-0.36,0.951-1.141,0.921c-1.514-0.059-1.62-1.559-1.62-1.998c0-0.438,0.677-2.265,3.02-2.213
		c3.376,0.076,5.204,2.946,6.115,5.12c0.352,0.845,0.566,1.585,0.68,2.014c0.448,1.708,0.606,3.137,0.604,4.651h-0.202h0.202
		c-0.004,0.925-0.067,1.879-0.162,2.952c-0.299,3.38-0.672,6.016-0.829,6.659c-0.129,0.532-0.167,0.582-0.049,0.7
		c0.12,0.12,1.354,0.648,2.674,0.611c1.322-0.035,3.25-0.372,4.218-2.884c0.334-0.867,0.198-1.782,0.125-1.837
		c-0.222-0.173-0.357-0.25-0.406-0.12c-0.198,0.513-1.022,0.775-1.588,0.565c-2.382-0.886-0.604-4.579,2.072-4.474
		c2.317,0.089,5,3.437,2.218,8.382c-1.67,2.971-4.295,3.567-7.624,3.977c-2.582,0.318-6.145-0.671-9.142-2.911
		c-2.53-1.891-3.914-3.648-5.366-6.455c-1.002-1.944-1.641-3.413-2.156-5.166c-0.224-0.763-0.424-1.578-0.621-2.51
		c-0.317-1.496-0.526-2.865-0.648-4.156v-0.005c-0.219-2.338-0.149-4.447,0.108-6.66v-0.003c0.236-2.042,0.633-4.177,1.109-6.661
		v-0.006c0.003-0.013,0.007-0.025,0.008-0.039c0.498-2.583,1.682-5.896,1.735-6.521c0.051-0.625-4.867,0.1-7.134,0.847
		c-2.305,0.761-8.227,2.343-12.394,5.208c-0.238,0.162-0.477,0.332-0.72,0.511h-0.004c-2.23,1.611-4.653,3.742-7.135,6.664v0.002
		c-1.592,1.873-3.206,4.071-4.811,6.663c-0.395,0.64-0.787,1.301-1.18,1.988c-0.948,1.657-1.715,3.23-2.34,4.677v0.003
		c-2.396,5.574-2.658,9.358-2.658,9.275l-0.042,0.349c0,0,1.204,0.045,1.973,0.035c5.644-0.073,7.197-0.461,14.055-3.456
		c3.72-1.626,8.985-6.208,8.985-6.208c2.29-2.334,3.87-4.741,4.776-6.663h0.001c0.591-1.244,0.897-2.278,0.925-2.953
		c0.019-0.41,0.035-1.027-0.373-0.983c-4.463,0.484-7.564,0.864-11.873,2.906c-0.637,0.3-1.323,0.653-2.013,1.03h-0.003
		c-2.674,1.458-5.382,3.271-5.322,3.863c0.042,0.424,4.621,1.755,7.55,1.196c2.46-0.47,5.035-1.584,5.704-2.946
		c0.092-0.185-0.115-0.4-0.211-0.483c-0.095-0.081-0.158,0.03-0.271,0.198c-0.113,0.168-0.569,0.236-0.569,0.236
		s-1.088,0.2-1.154-1.271c-0.017-0.333,0.049-0.595,0.164-0.793v-0.005c0.39-0.686,1.347-0.706,1.648-0.714
		c0.219-0.006,1.088,0.157,1.823,0.717h0.001c0.582,0.443,1.078,1.134,1.098,2.188c0.037,1.98-2.029,3.405-4.365,4.479v0.001
		c-0.623,0.288-1.264,0.549-1.89,0.791c-3.331,1.281-8.529-0.155-10.397-0.787h-0.014c-0.398-0.134-0.642-0.229-0.677-0.252
		c-0.203-0.132-0.466-0.066-0.584-0.033c-0.042,0.012-0.104,0.109-0.169,0.281h-0.508v0.001h0.508
		c-0.125,0.332-0.256,0.938-0.25,1.763c0.012,1.674,1.459,2.322,1.799,2.415c0.374,0.101,0.691-0.24,0.557-0.469
		c-0.193-0.326,0.284-1.284,0.91-1.462c0.511-0.142,2.018-0.338,2.364,1.116c1.024,4.299-7.753,5.237-8.689-1.635
		c-0.086-0.628-0.098-1.2-0.043-1.729h0.346h-0.346c0.223-2.227,1.574-3.68,3.166-5.197c0.559-0.529,1.129-1.018,1.71-1.468
		c2.57-1.999,5.292-3.257,7.363-4.026c1.966-0.729,4.114-1.556,6.809-2.343c0.339-0.098,0.699-0.197,1.067-0.295h0.003
		c1.677-0.443,3.479-0.842,3.812-0.954c0.311-0.104,0.97,0.13,0.663-0.663c-0.912-2.363-2.917-3.037-5.366-3.037
		c-0.952,0-1.522,0.538-1.522,1.229c0,0.16,0.565-0.06,0.861,0.1c0.415,0.224,0.62,0.703,0.616,1.042
		c-0.009,0.905-0.403,1.655-1.8,1.66c-2.759,0.011-3.738-4.138-0.774-6.042h0.002c0.75-0.483,1.757-0.823,3.051-0.913
		c1.63-0.113,3.211,0.18,4.634,0.913c0.855,0.439,1.653,1.036,2.374,1.797c0.807,0.854,2.225,2.204,2.809,4.867v0.005
		c0.111,0.516,0.195,1.082,0.233,1.702c0.101,1.54-0.155,3.214-0.744,4.958c-0.726,2.154-1.965,4.417-3.681,6.665
		c-0.345,0.456-0.712,0.909-1.098,1.361c-3.831,4.505-11.145,8.535-14.81,9.836c-5.063,1.797-11.75,2.504-19.378,2.719
		C4.182,49.089,3.143,49.093,2.136,49.066 M146.165,21.814h0.007c-0.007,0.042-0.014,0.081-0.02,0.117
		C146.157,21.892,146.16,21.854,146.165,21.814 M208.308,35.144c-0.029,0.062-0.057,0.125-0.085,0.186
		c0.029-0.063,0.053-0.124,0.081-0.186H208.308z M208.223,35.33c-0.035,0.082-0.071,0.162-0.104,0.244l-0.006,0.001
		C208.146,35.495,208.188,35.409,208.223,35.33"/>
	<path clip-path="url(#SVGID_2_)" fill="#FFFFFF" d="M80.587,4.191c0.194,0.313,2.663,2.735,4.677,3.974
		c1.98,1.217,4.383,1.985,5.071,2.096c1.03,0.165,3.314,0.096,4.425-0.044c1.113-0.14,5.313-1.941,5.43-5.159
		c0.057-1.582-1.428-1.977-2.105-1.658c-0.414,0.194-0.757,0.379-0.825,0.831c-0.095,0.627,0.263,1.269,1.179,1.119
		c0.26-0.043,0.192,0.147,0.192,0.155c0,0.457-0.642,1.382-1.12,1.266c-0.406-0.1-1.12-1.396-2.045-2.041
		c-2.649-1.84-7.042-1.627-8.242-0.668c-0.776,0.622-0.43,1.645,0.269,2.041c0.603,0.342,1.298,0.118,1.723-0.429
		c0.538-0.688-0.332-1.209,0.179-1.226c3.627-0.122,6.359,2.799,6.301,3.4c-0.009,0.094-0.002,0.122-0.124,0.205
		c-0.119,0.084-3.052,0.586-4.938,0.185c-1.454-0.311-2.255-0.692-3.512-1.486c-0.764-0.482-1.309-0.903-1.825-1.423
		c-0.423-0.426-2.257-1.988-2.347-2.039c-0.182-0.105-1.368,0.147-1.657,0.312C81.005,3.765,80.521,4.069,80.587,4.191"/>
	<path clip-path="url(#SVGID_2_)" fill="#FFFFFF" d="M181.419,4.191c0.194,0.313,2.663,2.735,4.677,3.974
		c1.979,1.217,4.383,1.985,5.071,2.096c1.031,0.165,3.314,0.096,4.425-0.044c1.113-0.14,5.313-1.941,5.43-5.159
		c0.058-1.582-1.428-1.977-2.104-1.658c-0.414,0.194-0.757,0.379-0.825,0.831c-0.095,0.627,0.262,1.269,1.179,1.119
		c0.26-0.043,0.191,0.147,0.191,0.155c0,0.457-0.642,1.382-1.119,1.266c-0.406-0.1-1.12-1.396-2.045-2.041
		c-2.649-1.84-7.042-1.627-8.242-0.668c-0.775,0.622-0.429,1.645,0.27,2.041c0.603,0.342,1.298,0.118,1.723-0.429
		c0.538-0.688-0.332-1.209,0.179-1.226c3.628-0.122,6.36,2.799,6.302,3.4c-0.009,0.094-0.002,0.122-0.124,0.205
		c-0.12,0.084-3.053,0.586-4.937,0.185c-1.455-0.311-2.256-0.692-3.513-1.486c-0.763-0.482-1.309-0.903-1.826-1.423
		c-0.423-0.426-2.257-1.988-2.347-2.039c-0.182-0.105-1.368,0.147-1.656,0.312C181.837,3.765,181.353,4.069,181.419,4.191"/>
	<path clip-path="url(#SVGID_2_)" fill="#FFFFFF" d="M282.252,4.191c0.193,0.313,2.661,2.735,4.675,3.974
		c1.98,1.217,4.385,1.985,5.071,2.096c1.031,0.165,3.315,0.096,4.427-0.044c1.112-0.14,5.313-1.941,5.43-5.159
		c0.057-1.582-1.428-1.977-2.105-1.658c-0.413,0.194-0.757,0.379-0.825,0.831c-0.094,0.627,0.263,1.269,1.179,1.119
		c0.261-0.043,0.192,0.147,0.192,0.155c0,0.457-0.642,1.382-1.12,1.266c-0.405-0.1-1.118-1.396-2.045-2.041
		c-2.648-1.84-7.041-1.627-8.241-0.668c-0.776,0.622-0.43,1.645,0.269,2.041c0.603,0.342,1.298,0.118,1.723-0.429
		c0.539-0.688-0.33-1.209,0.18-1.226c3.628-0.122,6.36,2.799,6.302,3.4c-0.009,0.094-0.002,0.122-0.124,0.205
		c-0.119,0.084-3.053,0.586-4.938,0.185c-1.454-0.311-2.255-0.692-3.512-1.486c-0.764-0.482-1.309-0.903-1.827-1.423
		c-0.423-0.426-2.256-1.988-2.346-2.039c-0.182-0.105-1.369,0.147-1.657,0.312S282.185,4.069,282.252,4.191"/>
	<path clip-path="url(#SVGID_2_)" fill="#FFFFFF" d="M383.084,4.191c0.193,0.313,2.662,2.735,4.676,3.974
		c1.979,1.217,4.383,1.985,5.071,2.096c1.03,0.165,3.314,0.096,4.426-0.044c1.112-0.14,5.313-1.941,5.43-5.159
		c0.058-1.582-1.428-1.977-2.104-1.658c-0.414,0.194-0.758,0.379-0.826,0.831c-0.094,0.627,0.263,1.269,1.179,1.119
		c0.261-0.043,0.192,0.147,0.192,0.155c0,0.457-0.642,1.382-1.12,1.266c-0.405-0.1-1.118-1.396-2.045-2.041
		c-2.648-1.84-7.041-1.627-8.24-0.668c-0.777,0.622-0.431,1.645,0.269,2.041c0.602,0.342,1.297,0.118,1.722-0.429
		c0.539-0.688-0.332-1.209,0.18-1.226c3.629-0.122,6.36,2.799,6.302,3.4c-0.01,0.094-0.002,0.122-0.124,0.205
		c-0.118,0.084-3.052,0.586-4.938,0.185c-1.454-0.311-2.255-0.692-3.512-1.486c-0.764-0.482-1.309-0.903-1.826-1.423
		c-0.424-0.426-2.257-1.988-2.347-2.039c-0.182-0.105-1.369,0.147-1.657,0.312S383.018,4.069,383.084,4.191"/>
	<path clip-path="url(#SVGID_2_)" fill="#FFFFFF" d="M131.387,47.521c0.194-0.313,2.663-2.736,4.677-3.975
		c1.979-1.217,4.382-1.985,5.071-2.096c1.03-0.164,3.314-0.095,4.425,0.045c1.113,0.14,5.313,1.941,5.43,5.16
		c0.058,1.581-1.428,1.977-2.105,1.658c-0.413-0.195-0.757-0.379-0.825-0.831c-0.095-0.626,0.263-1.27,1.179-1.119
		c0.26,0.044,0.192-0.147,0.192-0.155c0-0.456-0.642-1.382-1.12-1.265c-0.406,0.099-1.119,1.396-2.044,2.04
		c-2.649,1.84-7.042,1.627-8.242,0.669c-0.776-0.622-0.429-1.645,0.27-2.041c0.602-0.343,1.297-0.119,1.723,0.428
		c0.538,0.688-0.332,1.209,0.179,1.226c3.627,0.122,6.36-2.798,6.302-3.399c-0.01-0.095-0.002-0.123-0.125-0.206
		c-0.119-0.084-3.052-0.586-4.937-0.186c-1.455,0.311-2.255,0.693-3.513,1.486c-0.763,0.482-1.309,0.904-1.825,1.423
		c-0.423,0.427-2.257,1.988-2.347,2.04c-0.182,0.106-1.368-0.147-1.656-0.312C131.805,47.947,131.321,47.643,131.387,47.521"/>
	<path clip-path="url(#SVGID_2_)" fill="#FFFFFF" d="M230.624,47.521c0.194-0.313,2.664-2.736,4.677-3.975
		c1.98-1.217,4.383-1.985,5.071-2.096c1.031-0.164,3.313-0.095,4.425,0.045c1.112,0.14,5.312,1.941,5.429,5.16
		c0.058,1.581-1.427,1.977-2.104,1.658c-0.414-0.195-0.757-0.379-0.825-0.831c-0.095-0.626,0.264-1.27,1.178-1.119
		c0.261,0.044,0.192-0.147,0.192-0.155c0-0.456-0.642-1.382-1.119-1.265c-0.407,0.099-1.12,1.396-2.044,2.04
		c-2.65,1.84-7.043,1.627-8.243,0.669c-0.777-0.622-0.43-1.645,0.269-2.041c0.604-0.343,1.299-0.119,1.724,0.428
		c0.537,0.688-0.332,1.209,0.179,1.226c3.627,0.122,6.359-2.798,6.3-3.399c-0.008-0.095-0.002-0.123-0.124-0.206
		c-0.119-0.084-3.052-0.586-4.936-0.186c-1.456,0.311-2.256,0.693-3.513,1.486c-0.764,0.482-1.309,0.904-1.825,1.423
		c-0.423,0.427-2.258,1.988-2.347,2.04c-0.183,0.106-1.368-0.147-1.656-0.312C231.042,47.947,230.558,47.643,230.624,47.521"/>
	<path clip-path="url(#SVGID_2_)" fill="#FFFFFF" d="M332.814,47.521c0.195-0.313,2.663-2.736,4.677-3.975
		c1.979-1.217,4.383-1.985,5.071-2.096c1.031-0.164,3.314-0.095,4.425,0.045c1.114,0.14,5.314,1.941,5.432,5.16
		c0.057,1.581-1.43,1.977-2.105,1.658c-0.413-0.195-0.757-0.379-0.825-0.831c-0.096-0.626,0.262-1.27,1.179-1.119
		c0.261,0.044,0.192-0.147,0.192-0.155c0-0.456-0.644-1.382-1.12-1.265c-0.405,0.099-1.12,1.396-2.045,2.04
		c-2.648,1.84-7.041,1.627-8.243,0.669c-0.774-0.622-0.428-1.645,0.271-2.041c0.603-0.343,1.298-0.119,1.723,0.428
		c0.537,0.688-0.332,1.209,0.179,1.226c3.628,0.122,6.361-2.798,6.303-3.399c-0.01-0.095-0.004-0.123-0.124-0.206
		c-0.12-0.084-3.053-0.586-4.938-0.186c-1.454,0.311-2.257,0.693-3.514,1.486c-0.764,0.482-1.308,0.904-1.825,1.423
		c-0.423,0.427-2.256,1.988-2.348,2.04c-0.181,0.106-1.367-0.147-1.655-0.312C333.232,47.947,332.749,47.643,332.814,47.521"/>
	<path clip-path="url(#SVGID_2_)" fill="#FFFFFF" d="M433.233,47.521c0.195-0.313,2.663-2.736,4.677-3.975
		c1.979-1.217,4.383-1.985,5.071-2.096c1.03-0.164,3.314-0.095,4.425,0.045c1.113,0.14,5.314,1.941,5.43,5.16
		c0.059,1.581-1.428,1.977-2.104,1.658c-0.413-0.195-0.757-0.379-0.825-0.831c-0.097-0.626,0.262-1.27,1.179-1.119
		c0.259,0.044,0.19-0.147,0.19-0.155c0-0.456-0.642-1.382-1.118-1.265c-0.406,0.099-1.12,1.396-2.045,2.04
		c-2.649,1.84-7.041,1.627-8.243,0.669c-0.774-0.622-0.428-1.645,0.271-2.041c0.603-0.343,1.298-0.119,1.723,0.428
		c0.537,0.688-0.332,1.209,0.179,1.226c3.627,0.122,6.36-2.798,6.302-3.399c-0.01-0.095-0.003-0.123-0.125-0.206
		c-0.119-0.084-3.051-0.586-4.937-0.186c-1.455,0.311-2.256,0.693-3.513,1.486c-0.764,0.482-1.309,0.904-1.825,1.423
		c-0.423,0.427-2.256,1.988-2.348,2.04c-0.181,0.106-1.367-0.147-1.655-0.312C433.651,47.947,433.168,47.643,433.233,47.521"/>
	<path clip-path="url(#SVGID_2_)" fill="#FFFFFF" d="M29.905,47.521c0.194-0.313,2.663-2.736,4.677-3.975
		c1.979-1.217,4.383-1.985,5.071-2.096c1.03-0.164,3.314-0.095,4.425,0.045c1.113,0.14,5.313,1.941,5.43,5.16
		c0.058,1.581-1.428,1.977-2.104,1.658c-0.414-0.195-0.757-0.379-0.825-0.831c-0.095-0.626,0.262-1.27,1.178-1.119
		c0.26,0.044,0.192-0.147,0.192-0.155c0-0.456-0.642-1.382-1.12-1.265c-0.406,0.099-1.119,1.396-2.044,2.04
		c-2.649,1.84-7.042,1.627-8.242,0.669c-0.776-0.622-0.429-1.645,0.27-2.041c0.603-0.343,1.297-0.119,1.723,0.428
		c0.538,0.688-0.332,1.209,0.179,1.226c3.627,0.122,6.36-2.798,6.302-3.399c-0.009-0.095-0.002-0.123-0.124-0.206
		c-0.12-0.084-3.053-0.586-4.937-0.186c-1.455,0.311-2.256,0.693-3.513,1.486c-0.763,0.482-1.308,0.904-1.825,1.423
		c-0.423,0.427-2.257,1.988-2.347,2.04c-0.182,0.106-1.368-0.147-1.656-0.312C30.324,47.947,29.839,47.643,29.905,47.521"/>
</g>
</svg>
